<?xml version="1.0" standalone="no"?>
<!DOCTYPE svg PUBLIC "-//W3C//DTD SVG 20010904//EN"
 "http://www.w3.org/TR/2001/REC-SVG-20010904/DTD/svg10.dtd">
<svg version="1.0" xmlns="http://www.w3.org/2000/svg"
 width="512.000000pt" height="512.000000pt" viewBox="0 0 512.000000 512.000000"
 preserveAspectRatio="xMidYMid meet">

<g transform="translate(0.000000,512.000000) scale(0.100000,-0.100000)"
fill="#000000" stroke="none">
<path d="M1520 5108 c-50 -17 -133 -104 -148 -154 -25 -86 -20 -105 116 -428
70 -169 129 -220 252 -220 138 0 235 97 234 234 -1 59 -9 85 -86 268 -90 213
-112 248 -182 284 -47 24 -137 32 -186 16z m113 -152 c30 -12 39 -28 109 -197
83 -199 86 -210 75 -252 -17 -62 -121 -68 -151 -8 -13 26 -138 330 -149 363
-11 31 14 79 47 94 38 16 31 16 69 0z"/>
<path d="M3425 5096 c-80 -38 -100 -68 -193 -288 -77 -183 -85 -209 -86 -268
-1 -95 43 -167 129 -213 56 -30 155 -29 211 0 79 42 98 75 233 410 61 151 53
221 -34 308 -77 78 -166 95 -260 51z m129 -140 c35 -15 60 -62 49 -94 -11 -33
-136 -337 -149 -363 -19 -38 -66 -53 -109 -34 -35 14 -52 48 -46 90 3 23 137
349 154 377 9 14 34 29 65 37 1 1 18 -5 36 -13z"/>
<path d="M2500 4865 c-25 -8 -60 -29 -78 -48 -17 -18 -130 -177 -250 -352
-167 -245 -227 -324 -253 -339 l-35 -19 -410 77 c-384 72 -414 76 -459 65 -66
-17 -127 -78 -144 -144 -11 -45 -7 -75 65 -459 l77 -410 -19 -35 c-15 -26 -94
-86 -339 -253 -175 -120 -334 -233 -353 -250 -20 -21 -39 -52 -48 -85 -14 -48
-14 -58 0 -106 9 -33 28 -64 48 -85 19 -17 178 -130 353 -250 225 -154 326
-229 339 -252 19 -32 19 -32 -14 -215 -37 -203 -36 -226 17 -246 33 -12 66 0
86 33 23 36 81 362 73 414 -8 59 -37 113 -83 155 -21 19 -179 130 -350 247
-172 117 -318 222 -323 233 -8 13 -8 25 0 38 5 11 151 116 323 233 339 231
378 262 408 321 38 74 36 106 -45 531 -75 401 -78 426 -42 439 8 3 194 -28
413 -69 424 -81 456 -83 530 -45 59 30 90 69 321 408 117 172 222 318 233 323
13 8 25 8 38 0 11 -5 116 -151 233 -323 231 -339 262 -378 321 -408 74 -38
106 -36 530 45 219 41 405 72 413 69 36 -13 33 -38 -42 -439 -81 -425 -83
-457 -45 -531 30 -59 69 -90 408 -321 172 -117 318 -222 323 -233 8 -13 8 -25
0 -38 -5 -11 -151 -116 -323 -233 -339 -231 -378 -262 -408 -321 -38 -74 -36
-106 45 -530 41 -219 72 -405 69 -413 -13 -36 -38 -33 -439 42 -425 81 -457
83 -531 45 -59 -30 -90 -69 -321 -408 -117 -172 -222 -318 -233 -323 -13 -8
-25 -8 -38 0 -11 5 -116 151 -233 323 -231 339 -262 378 -321 408 -74 38 -106
36 -531 -45 -282 -53 -404 -72 -417 -66 -24 14 -30 38 -19 85 23 96 1 145 -64
145 -47 0 -70 -32 -85 -119 -8 -55 -8 -82 1 -118 16 -64 77 -125 143 -142 45
-11 75 -7 459 65 l410 77 35 -19 c26 -15 86 -94 253 -339 120 -175 233 -334
250 -353 21 -20 52 -39 85 -48 48 -14 58 -14 106 0 33 9 64 28 85 48 17 19
130 178 250 353 167 245 227 324 253 339 l35 19 410 -77 c384 -72 414 -76 459
-65 66 17 127 78 144 144 11 45 7 75 -65 459 l-77 410 19 35 c15 26 94 86 339
253 175 120 334 233 353 250 20 21 39 52 48 85 14 48 14 58 0 106 -9 33 -28
64 -48 85 -19 17 -178 130 -353 250 -245 167 -324 227 -339 253 l-19 35 77
410 c72 384 76 414 65 459 -17 66 -78 127 -144 144 -45 11 -75 7 -459 -65
l-410 -77 -35 19 c-26 15 -86 94 -253 339 -120 175 -233 334 -250 352 -19 20
-53 40 -82 48 -58 18 -58 18 -116 0z"/>
<path d="M2405 3990 c-502 -57 -944 -377 -1152 -835 -91 -201 -126 -366 -126
-595 0 -296 71 -539 229 -780 120 -184 240 -304 424 -424 241 -158 484 -229
780 -229 296 0 539 71 780 229 184 120 304 240 424 424 154 236 227 479 230
767 1 136 0 142 -23 167 -29 31 -69 34 -102 7 -23 -18 -24 -26 -26 -157 -3
-160 -22 -283 -63 -406 -138 -411 -476 -730 -890 -838 -213 -55 -449 -57 -650
-3 -452 120 -804 470 -920 913 -32 124 -41 194 -41 330 0 136 9 206 41 330 92
353 342 657 675 823 290 144 652 169 962 68 342 -112 635 -374 773 -692 56
-129 61 -137 90 -149 23 -9 34 -9 59 4 58 30 53 81 -24 241 -197 408 -583 703
-1035 790 -104 19 -308 27 -415 15z"/>
<path d="M160 3747 c-53 -17 -133 -102 -149 -160 -24 -84 3 -179 67 -241 19
-17 109 -61 234 -114 183 -77 209 -85 268 -86 137 -1 234 96 234 234 0 123
-51 182 -220 252 -323 136 -347 142 -434 115z m275 -214 c194 -79 212 -89 224
-126 22 -61 -28 -118 -94 -108 -23 3 -349 137 -376 154 -50 31 -40 119 15 143
38 16 35 17 231 -63z"/>
<path d="M4705 3706 c-256 -105 -288 -119 -322 -149 -54 -47 -77 -101 -77
-177 0 -138 97 -235 234 -234 59 1 85 9 268 86 212 89 248 113 283 180 50 97
33 195 -45 273 -93 92 -158 96 -341 21z m214 -111 c53 -27 60 -112 12 -142
-27 -17 -353 -151 -376 -154 -42 -6 -76 11 -90 46 -18 42 -5 85 33 107 41 24
365 156 385 158 4 0 21 -7 36 -15z"/>
<path d="M2294 3179 c-38 -14 -54 -48 -54 -117 0 -53 4 -67 25 -87 53 -54 121
-18 131 71 11 90 -40 156 -102 133z"/>
<path d="M3264 3179 c-38 -13 -54 -49 -54 -115 0 -53 4 -65 26 -88 33 -33 73
-34 102 -3 18 19 22 35 22 91 0 37 -4 76 -10 86 -13 23 -59 39 -86 29z"/>
<path d="M2626 3079 c-43 -34 -36 -78 19 -127 53 -46 115 -66 185 -60 61 6
136 50 163 96 17 28 17 37 7 63 -23 55 -73 64 -127 23 -21 -16 -47 -26 -68
-26 -19 0 -49 11 -71 26 -47 31 -73 33 -108 5z"/>
<path d="M520 1971 c-107 -36 -410 -170 -437 -194 -71 -62 -99 -165 -69 -254
20 -61 84 -126 145 -148 87 -30 107 -25 435 113 169 70 220 129 220 252 0 95
-44 169 -128 212 -43 22 -128 32 -166 19z m110 -161 c47 -25 43 -112 -8 -142
-28 -16 -331 -141 -368 -152 -58 -17 -114 51 -93 112 12 35 25 42 229 127 152
63 203 75 240 55z"/>
<path d="M4480 1971 c-112 -36 -174 -119 -174 -231 0 -123 51 -182 220 -252
246 -104 313 -128 352 -128 177 0 294 190 213 347 -35 69 -70 91 -283 180
-204 85 -272 103 -328 84z m262 -222 c202 -83 205 -85 218 -122 20 -60 -37
-128 -94 -111 -37 11 -340 136 -368 152 -35 20 -51 63 -37 100 26 72 70 69
281 -19z"/>
<path d="M1680 811 c-115 -37 -133 -64 -279 -428 -61 -151 -53 -221 34 -309
78 -78 176 -95 273 -45 67 35 91 71 180 283 77 183 85 209 86 268 1 95 -44
169 -128 212 -43 22 -128 32 -166 19z m95 -155 c35 -15 52 -49 46 -91 -2 -11
-37 -103 -79 -204 -70 -170 -78 -185 -109 -197 -68 -29 -135 32 -113 103 4 15
27 73 50 128 23 55 56 133 72 174 25 59 37 76 62 87 39 16 31 16 71 0z"/>
<path d="M3320 811 c-112 -37 -175 -119 -174 -231 0 -58 9 -85 84 -264 88
-209 116 -253 182 -287 97 -49 195 -33 273 45 87 88 95 158 34 309 -134 334
-154 369 -232 408 -44 23 -128 33 -167 20z m89 -152 c37 -13 39 -17 124 -224
82 -203 78 -189 65 -226 -15 -44 -65 -65 -111 -45 -31 12 -39 27 -109 197 -83
199 -86 210 -75 252 7 24 24 37 73 57 1 0 15 -5 33 -11z"/>
</g>
</svg>
